<svg xmlns="http://www.w3.org/2000/svg" viewBox="0 0 256 256" role="img" aria-label="LightLaunchpad app icon">
  <defs>
    <linearGradient id="bg" x1="46" y1="25" x2="214" y2="232" gradientUnits="userSpaceOnUse">
      <stop offset="0" stop-color="#1F3446"/>
      <stop offset="0.48" stop-color="#172431"/>
      <stop offset="1" stop-color="#0D1119"/>
    </linearGradient>
    <linearGradient id="glass" x1="61" y1="45" x2="203" y2="207" gradientUnits="userSpaceOnUse">
      <stop offset="0" stop-color="#ECF8FF" stop-opacity="0.78"/>
      <stop offset="0.42" stop-color="#91CEF5" stop-opacity="0.46"/>
      <stop offset="1" stop-color="#284B70" stop-opacity="0.36"/>
    </linearGradient>
    <linearGradient id="edge" x1="58" y1="43" x2="205" y2="209" gradientUnits="userSpaceOnUse">
      <stop offset="0" stop-color="#FFFFFF" stop-opacity="0.9"/>
      <stop offset="0.44" stop-color="#B9E7FF" stop-opacity="0.55"/>
      <stop offset="1" stop-color="#5A89C8" stop-opacity="0.5"/>
    </linearGradient>
    <radialGradient id="glow" cx="40%" cy="30%" r="65%">
      <stop offset="0" stop-color="#98F3FF" stop-opacity="0.95"/>
      <stop offset="0.42" stop-color="#54B9FF" stop-opacity="0.42"/>
      <stop offset="1" stop-color="#54B9FF" stop-opacity="0"/>
    </radialGradient>
    <filter id="softShadow" x="-22%" y="-22%" width="144%" height="144%" color-interpolation-filters="sRGB">
      <feDropShadow dx="0" dy="16" stdDeviation="18" flood-color="#000713" flood-opacity="0.55"/>
    </filter>
  </defs>

  <rect x="18" y="18" width="220" height="220" rx="56" fill="url(#bg)"/>
  <circle cx="95" cy="82" r="92" fill="url(#glow)"/>

  <g filter="url(#softShadow)">
    <rect x="48" y="48" width="160" height="160" rx="42" fill="url(#glass)"/>
    <rect x="49.5" y="49.5" width="157" height="157" rx="40.5" fill="none" stroke="url(#edge)" stroke-width="3"/>
    <path d="M66 76C88 58 130 52 190 61" fill="none" stroke="#FFFFFF" stroke-opacity="0.55" stroke-width="7" stroke-linecap="round"/>
  </g>

  <g fill="#F4FBFF">
    <circle cx="92" cy="97" r="9"/>
    <circle cx="128" cy="97" r="9" opacity="0.92"/>
    <circle cx="164" cy="97" r="9" opacity="0.84"/>
    <circle cx="92" cy="133" r="9" opacity="0.9"/>
    <circle cx="128" cy="133" r="11"/>
    <circle cx="164" cy="133" r="9" opacity="0.9"/>
    <circle cx="92" cy="169" r="9" opacity="0.82"/>
    <circle cx="128" cy="169" r="9" opacity="0.9"/>
    <circle cx="164" cy="169" r="9"/>
  </g>

  <path d="M183 177L212 206" stroke="#B9F6FF" stroke-width="11" stroke-linecap="round"/>
  <circle cx="170" cy="164" r="25" fill="none" stroke="#B9F6FF" stroke-width="10"/>
  <circle cx="170" cy="164" r="16" fill="#FFFFFF" fill-opacity="0.16"/>
</svg>
